<?xml version="1.0"?>
<!DOCTYPE svg PUBLIC "-//W3C//DTD SVG 1.1//EN" "http://www.w3.org/Graphics/SVG/1.1/DTD/svg11.dtd">
<svg width="78.54mm" height="97.54mm" viewBox="0 0 78.54 97.54" xmlns="http://www.w3.org/2000/svg" version="1.1">
<g id="Sketch" transform="translate(39.270000,48.770000) scale(1,-1)">
<path id="Sketch_w0000"  d="M -38.5 48.0 L 38.5 48.0 L 38.5 -48.0 L -38.5 -48.0 L -38.5 48.0 " stroke="#000000" stroke-width="0.35 px" style="stroke-width:0.35;stroke-miterlimit:4;stroke-dasharray:none;stroke-linecap:square;fill:none;fill-opacity:1;fill-rule: evenodd"/>
<path id="Sketch_w0001"  d="M -34.875 44.9 L -22.875 44.9 L -22.875 31.9 L -34.875 31.9 L -34.875 44.9 " stroke="#000000" stroke-width="0.35 px" style="stroke-width:0.35;stroke-miterlimit:4;stroke-dasharray:none;stroke-linecap:square;fill:none;fill-opacity:1;fill-rule: evenodd"/>
<path id="Sketch_w0002"  d="M -15.625000000000004 44.9 L -3.6250000000000036 44.9 L -3.6250000000000036 31.9 L -15.625000000000004 31.9 L -15.625000000000004 44.9 " stroke="#000000" stroke-width="0.35 px" style="stroke-width:0.35;stroke-miterlimit:4;stroke-dasharray:none;stroke-linecap:square;fill:none;fill-opacity:1;fill-rule: evenodd"/>
<path id="Sketch_w0003"  d="M 3.625 44.9 L 15.624999999999998 44.9 L 15.624999999999998 31.9 L 3.625 31.9 L 3.625 44.9 " stroke="#000000" stroke-width="0.35 px" style="stroke-width:0.35;stroke-miterlimit:4;stroke-dasharray:none;stroke-linecap:square;fill:none;fill-opacity:1;fill-rule: evenodd"/>
<path id="Sketch_w0004"  d="M 22.875 44.9 L 34.875 44.9 L 34.875 31.9 L 22.875 31.9 L 22.875 44.9 " stroke="#000000" stroke-width="0.35 px" style="stroke-width:0.35;stroke-miterlimit:4;stroke-dasharray:none;stroke-linecap:square;fill:none;fill-opacity:1;fill-rule: evenodd"/>
<path id="Sketch_w0005"  d="M -34.875 25.699999999999992 L -22.875 25.699999999999992 L -22.875 12.699999999999994 L -34.875 12.699999999999994 L -34.875 25.699999999999992 M -34.875 25.699999999999992 L -28.875 12.699999999999992 L -22.875 19.199999999999992 L -34.875 25.699999999999992 " stroke="#000000" stroke-width="0.35 px" style="stroke-width:0.35;stroke-miterlimit:4;stroke-dasharray:none;stroke-linecap:square;fill:none;fill-opacity:1;fill-rule: evenodd"/>
<path id="Sketch_w0006"  d="M -15.625000000000004 12.699999999999994 L -15.625000000000004 25.699999999999992 L -3.6250000000000036 25.699999999999992 L -3.6250000000000036 12.699999999999994 L -9.625000000000004 25.699999999999992 L -15.625000000000004 12.699999999999994 L -3.6250000000000036 12.699999999999994 " stroke="#000000" stroke-width="0.35 px" style="stroke-width:0.35;stroke-miterlimit:4;stroke-dasharray:none;stroke-linecap:square;fill:none;fill-opacity:1;fill-rule: evenodd"/>
<path id="Sketch_w0007"  d="M 3.625 25.699999999999992 L 15.624999999999998 25.699999999999992 L 9.624999999999998 12.699999999999992 L 3.625 19.199999999999992 L 15.624999999999998 25.699999999999992 L 15.624999999999998 12.699999999999994 L 3.625 12.699999999999994 L 3.625 25.699999999999992 " stroke="#000000" stroke-width="0.35 px" style="stroke-width:0.35;stroke-miterlimit:4;stroke-dasharray:none;stroke-linecap:square;fill:none;fill-opacity:1;fill-rule: evenodd"/>
<path id="Sketch_w0008"  d="M 22.875 12.699999999999994 L 22.875 25.699999999999992 L 34.875 25.699999999999992 L 34.875 12.699999999999994 L 22.875 12.699999999999994 L 34.875 12.699999999999994 " stroke="#000000" stroke-width="0.35 px" style="stroke-width:0.35;stroke-miterlimit:4;stroke-dasharray:none;stroke-linecap:square;fill:none;fill-opacity:1;fill-rule: evenodd"/>
<path id="Sketch_w0009"  d="M -34.875 6.499999999999997 L -22.875 6.499999999999997 L -22.875 -6.500000000000003 L -34.875 -6.500000000000003 L -34.875 6.499999999999997 M -22.875 -6.5000000000000036 L -34.875 -1.910019923181761e-15 L -22.875 6.499999999999997 " stroke="#000000" stroke-width="0.35 px" style="stroke-width:0.35;stroke-miterlimit:4;stroke-dasharray:none;stroke-linecap:square;fill:none;fill-opacity:1;fill-rule: evenodd"/>
<path id="Sketch_w0010"  d="M -15.625000000000004 6.499999999999997 L -3.6250000000000036 6.499999999999997 L -3.6250000000000036 -6.500000000000003 L -15.625000000000004 -6.500000000000003 L -15.625000000000004 6.499999999999997 " stroke="#000000" stroke-width="0.35 px" style="stroke-width:0.35;stroke-miterlimit:4;stroke-dasharray:none;stroke-linecap:square;fill:none;fill-opacity:1;fill-rule: evenodd"/>
<path id="Sketch_w0011"  d="M 3.625 6.499999999999997 L 15.624999999999998 6.499999999999997 L 15.624999999999998 -6.500000000000003 L 3.625 -6.500000000000003 L 3.625 6.499999999999997 M 3.625 6.499999999999997 L 15.625 -1.8431883751337965e-15 L 3.625 -6.500000000000003 " stroke="#000000" stroke-width="0.35 px" style="stroke-width:0.35;stroke-miterlimit:4;stroke-dasharray:none;stroke-linecap:square;fill:none;fill-opacity:1;fill-rule: evenodd"/>
<path id="Sketch_w0012"  d="M 22.875 6.499999999999997 L 34.875 6.499999999999997 L 34.875 -6.500000000000003 L 22.875 -6.500000000000003 L 22.875 6.499999999999997 " stroke="#000000" stroke-width="0.35 px" style="stroke-width:0.35;stroke-miterlimit:4;stroke-dasharray:none;stroke-linecap:square;fill:none;fill-opacity:1;fill-rule: evenodd"/>
<path id="Sketch_w0013"  d="M -34.875 -12.700000000000003 L -22.875 -12.700000000000003 L -22.875 -25.700000000000003 L -34.875 -25.700000000000003 L -28.875 -12.700000000000001 L -22.875 -19.200000000000003 L -34.875 -25.700000000000003 L -34.875 -12.700000000000003 " stroke="#000000" stroke-width="0.35 px" style="stroke-width:0.35;stroke-miterlimit:4;stroke-dasharray:none;stroke-linecap:square;fill:none;fill-opacity:1;fill-rule: evenodd"/>
<path id="Sketch_w0014"  d="M -15.625000000000004 -12.700000000000003 L -3.6250000000000036 -12.700000000000003 L -3.6250000000000036 -25.700000000000003 L -15.625000000000004 -25.700000000000003 L -15.625000000000004 -12.700000000000003 M -15.625000000000004 -12.700000000000003 L -9.625000000000004 -25.700000000000003 L -3.6250000000000036 -12.700000000000003 " stroke="#000000" stroke-width="0.35 px" style="stroke-width:0.35;stroke-miterlimit:4;stroke-dasharray:none;stroke-linecap:square;fill:none;fill-opacity:1;fill-rule: evenodd"/>
<path id="Sketch_w0015"  d="M 3.625 -12.700000000000003 L 15.624999999999998 -12.700000000000003 L 15.624999999999998 -25.700000000000003 L 3.625 -25.700000000000003 L 3.625 -12.700000000000003 " stroke="#000000" stroke-width="0.35 px" style="stroke-width:0.35;stroke-miterlimit:4;stroke-dasharray:none;stroke-linecap:square;fill:none;fill-opacity:1;fill-rule: evenodd"/>
<path id="Sketch_w0016"  d="M -34.875 -31.900000000000002 L -3.6250000000000036 -31.900000000000002 L -3.6250000000000036 -44.9 L -34.875 -44.9 L -34.875 -31.900000000000002 " stroke="#000000" stroke-width="0.35 px" style="stroke-width:0.35;stroke-miterlimit:4;stroke-dasharray:none;stroke-linecap:square;fill:none;fill-opacity:1;fill-rule: evenodd"/>
<path id="Sketch_w0017"  d="M 3.625 -31.900000000000002 L 15.624999999999998 -31.900000000000002 L 15.624999999999998 -44.9 L 3.625 -44.9 L 3.625 -31.900000000000002 " stroke="#000000" stroke-width="0.35 px" style="stroke-width:0.35;stroke-miterlimit:4;stroke-dasharray:none;stroke-linecap:square;fill:none;fill-opacity:1;fill-rule: evenodd"/>
<path id="Sketch_w0018"  d="M 22.875 -12.700000000000003 L 34.875 -12.700000000000003 L 34.875 -44.9 L 22.875 -44.9 L 22.875 -12.700000000000003 M 22.875 -12.700000000000003 L 34.875 -44.9 M 34.875 -12.700000000000003 L 22.875 -44.9 " stroke="#000000" stroke-width="0.35 px" style="stroke-width:0.35;stroke-miterlimit:4;stroke-dasharray:none;stroke-linecap:square;fill:none;fill-opacity:1;fill-rule: evenodd"/>
<path id="Sketch_w0019"  d="M 3.624999999999999 -38.4 L 15.625 -38.4 " stroke="#000000" stroke-width="0.35 px" style="stroke-width:0.35;stroke-miterlimit:4;stroke-dasharray:none;stroke-linecap:square;fill:none;fill-opacity:1;fill-rule: evenodd"/>
<circle cx="-28.875" cy="38.4" r="4.4" stroke="#000000" stroke-width="0.35 px" style="stroke-width:0.35;stroke-miterlimit:4;stroke-dasharray:none;stroke-linecap:square;fill:none"/>
<path id="Sketch_w0021"  d="M -15.625000000000002 -1.910019923181761e-15 L -3.6250000000000036 -1.910019923181761e-15 " stroke="#000000" stroke-width="0.35 px" style="stroke-width:0.35;stroke-miterlimit:4;stroke-dasharray:none;stroke-linecap:square;fill:none;fill-opacity:1;fill-rule: evenodd"/>
<path id="Sketch_w0022"  d="M -15.624999999999998 38.4 L -3.6250000000000018 38.4 " stroke="#000000" stroke-width="0.35 px" style="stroke-width:0.35;stroke-miterlimit:4;stroke-dasharray:none;stroke-linecap:square;fill:none;fill-opacity:1;fill-rule: evenodd"/>
<path id="Sketch_w0023"  d="M 3.624999999999999 38.4 L 15.624999999999993 38.4 " stroke="#000000" stroke-width="0.35 px" style="stroke-width:0.35;stroke-miterlimit:4;stroke-dasharray:none;stroke-linecap:square;fill:none;fill-opacity:1;fill-rule: evenodd"/>
<path id="Sketch_w0024"  d="M 22.875000000000007 38.4 L 34.875 38.4 " stroke="#000000" stroke-width="0.35 px" style="stroke-width:0.35;stroke-miterlimit:4;stroke-dasharray:none;stroke-linecap:square;fill:none;fill-opacity:1;fill-rule: evenodd"/>
<circle cx="-9.625000000000004" cy="-1.9100199231817614e-15" r="3.9" stroke="#000000" stroke-width="0.35 px" style="stroke-width:0.35;stroke-miterlimit:4;stroke-dasharray:none;stroke-linecap:square;fill:none"/>
<path id="Sketch_w0026"  d="M -9.625000000000004 6.499999999999998 L -9.625000000000004 -6.500000000000002 " stroke="#000000" stroke-width="0.35 px" style="stroke-width:0.35;stroke-miterlimit:4;stroke-dasharray:none;stroke-linecap:square;fill:none;fill-opacity:1;fill-rule: evenodd"/>
<path id="Sketch_w0027"  d="M -17.381205 -38.18175500012982 L -18.095066 -38.181755000129826 L -17.190135500300045 -38.103439358037676 L -17.190135500300045 -42.89518890821057 L -30.875025729614727 -42.89518890821057 L -30.875025729614727 -38.18175500012982 L -19.471384488814003 -38.18175500012982 L -19.471384488814003 -33.69477766892664 L -7.624974270385293 -33.69477766892664 L -7.624974270385293 -37.406081999987705 L -8.99494320330955 -37.406081999987705 L -8.99494320330955 -35.06474660185089 L -18.10141555588975 -35.06474660185089 L -18.10141555588975 -38.18175500012982 L -17.381205 -38.18175500012982 " stroke="#000000" stroke-width="0.35 px" style="stroke-width:0.35;stroke-miterlimit:4;stroke-dasharray:none;stroke-linecap:square;fill:none;fill-opacity:1;fill-rule: evenodd"/>
<path id="Sketch_w0028"  d="M -24.423222652217692 -40.82623700000623 L -24.423222652217692 -42.15256500005745 L -23.641938577697072 -42.15256500005745 L -23.641938577697072 -40.82623700000623 A 1.04153 1.04153 0 1 1 -24.4232 -40.8262" stroke="#000000" stroke-width="0.35 px" style="stroke-width:0.35;stroke-miterlimit:4;stroke-dasharray:none;stroke-linecap:square;fill:none;fill-opacity:1;fill-rule: evenodd"/>
<circle cx="-9.625000000000002" cy="35.15" r="2.3243186020922293" stroke="#000000" stroke-width="0.35 px" style="stroke-width:0.35;stroke-miterlimit:4;stroke-dasharray:none;stroke-linecap:square;fill:none"/>
<circle cx="-12.625000000000004" cy="41.65" r="1.8840242986932383" stroke="#000000" stroke-width="0.35 px" style="stroke-width:0.35;stroke-miterlimit:4;stroke-dasharray:none;stroke-linecap:square;fill:none"/>
<path id="Sketch_w0031"  d="M 26.073019 37.47431860209223 L 26.073019 32.825681397907786 L 31.411076 35.150000000000006 L 26.073019 37.47431860209223 " stroke="#000000" stroke-width="0.35 px" style="stroke-width:0.35;stroke-miterlimit:4;stroke-dasharray:none;stroke-linecap:square;fill:none;fill-opacity:1;fill-rule: evenodd"/>
<circle cx="31.875" cy="41.65" r="1.8840242986932383" stroke="#000000" stroke-width="0.35 px" style="stroke-width:0.35;stroke-miterlimit:4;stroke-dasharray:none;stroke-linecap:square;fill:none"/>
<path id="Sketch_w0033"  d="M 8.990932162334996 43.534024298693225 L 10.25906783766501 43.534024298693225 L 10.25906783766501 39.76597570130675 L 8.990932162334996 39.76597570130675 L 8.990932162334996 43.534024298693225 " stroke="#000000" stroke-width="0.35 px" style="stroke-width:0.35;stroke-miterlimit:4;stroke-dasharray:none;stroke-linecap:square;fill:none;fill-opacity:1;fill-rule: evenodd"/>
<path id="Sketch_w0034"  d="M -7.259067837665001 43.53402429869324 L -5.990932162334988 43.53402429869324 L -5.990932162334988 39.765975701306765 L -7.259067837665001 39.765975701306765 L -7.259067837665001 43.53402429869324 " stroke="#000000" stroke-width="0.35 px" style="stroke-width:0.35;stroke-miterlimit:4;stroke-dasharray:none;stroke-linecap:square;fill:none;fill-opacity:1;fill-rule: evenodd"/>
<path id="Sketch_w0035"  d="M 25.240932162334985 43.53402429869323 L 26.509067837665 43.53402429869323 L 26.509067837665 39.76597570130676 L 25.240932162334985 39.76597570130676 L 25.240932162334985 43.53402429869323 " stroke="#000000" stroke-width="0.35 px" style="stroke-width:0.35;stroke-miterlimit:4;stroke-dasharray:none;stroke-linecap:square;fill:none;fill-opacity:1;fill-rule: evenodd"/>
<circle cx="-9.000021769485878" cy="41.65" r="0.498319" stroke="#000000" stroke-width="0.35 px" style="stroke-width:0.35;stroke-miterlimit:4;stroke-dasharray:none;stroke-linecap:square;fill:none"/>
<path id="Sketch_w0037"  d="M 10.25906783766501 37.47431860209223 L 11.222616000000132 37.47431860209223 L 11.222616000000132 32.82568139790777 L 10.25906783766501 32.82568139790777 L 10.25906783766501 37.47431860209223 " stroke="#000000" stroke-width="0.35 px" style="stroke-width:0.35;stroke-miterlimit:4;stroke-dasharray:none;stroke-linecap:square;fill:none;fill-opacity:1;fill-rule: evenodd"/>
<path id="Sketch_w0038"  d="M 8.990932162334996 37.47431860209223 L 8.027383999999874 37.47431860209223 L 8.027383999999874 32.82568139790777 L 8.990932162334996 32.82568139790777 L 8.990932162334996 37.47431860209223 " stroke="#000000" stroke-width="0.35 px" style="stroke-width:0.35;stroke-miterlimit:4;stroke-dasharray:none;stroke-linecap:square;fill:none;fill-opacity:1;fill-rule: evenodd"/>
<path id="Sketch_w0039"  d="M 9.018989329664947 -33.024151 L 9.018989329664947 -35.445511 L 9.624999999999998 -37.09275400001252 L 10.231010670335051 -35.445511 L 10.231010670335051 -33.024151 L 9.018989329664947 -33.024151 " stroke="#000000" stroke-width="0.35 px" style="stroke-width:0.35;stroke-miterlimit:4;stroke-dasharray:none;stroke-linecap:square;fill:none;fill-opacity:1;fill-rule: evenodd"/>
<path id="Sketch_w0040"  d="M 12.684607 -39.836807 L 12.684607 -42.40269500002274 L 13.2425435 -43.69426 L 13.800480000000002 -42.40269500002274 L 13.800480000000002 -39.836807 L 12.684607 -39.836807 " stroke="#000000" stroke-width="0.35 px" style="stroke-width:0.35;stroke-miterlimit:4;stroke-dasharray:none;stroke-linecap:square;fill:none;fill-opacity:1;fill-rule: evenodd"/>
<path id="Sketch_w0041"  d="M 7.592192000006595 -42.985018699857186 L 7.592192000006595 -43.95927558691899 L 6.9155348875278 -43.95927558691899 L 6.9155348875278 -42.985018699857235 L 5.941278000466048 -42.98502969869903 L 5.941278000466048 -42.380562112371706 L 6.9155348875278 -42.380562112371706 L 6.9155348875278 -41.4232224160493 L 5.941278000466048 -41.4232224160493 L 5.941278000466048 -40.818754829721975 L 6.9155348875278 -40.818754829721975 L 6.9155348875278 -39.844497942660226 L 7.520002473855123 -39.844497942660226 L 7.520002473855123 -40.818754829721975 L 8.754680807666372 -40.818754829721975 L 8.754680807666372 -39.844497942660226 L 9.359148393993696 -39.844497942660226 L 9.359148393993696 -40.818754829721975 L 10.333405281055448 -40.818754829721975 L 10.333405281055448 -41.45421517797826 L 9.359148393993696 -41.45421517797826 L 9.359148393993696 -42.380562112371706 L 10.333405281055448 -42.380562112371706 L 10.333405281055448 -42.985018699857235 L 9.359148393993694 -42.985018699857235 L 9.359148393993694 -43.95927558691899 L 8.82160767845096 -43.95927558691899 L 8.82160767845096 -43.0454698809436 L 7.520002473855097 -43.0454698809436 " stroke="#000000" stroke-width="0.35 px" style="stroke-width:0.35;stroke-miterlimit:4;stroke-dasharray:none;stroke-linecap:square;fill:none;fill-opacity:1;fill-rule: evenodd"/>
<path id="Sketch_w0042"  d="M 7.520002473855097 -42.380562112371706 L 8.82160767845096 -42.380562112371706 L 8.82160767845096 -41.45421517797826 L 7.592192000006595 -41.45421517797826 L 7.592192000006595 -42.38056211237171 " stroke="#000000" stroke-width="0.35 px" style="stroke-width:0.35;stroke-miterlimit:4;stroke-dasharray:none;stroke-linecap:square;fill:none;fill-opacity:1;fill-rule: evenodd"/>
<path id="Sketch_w0043"  d="M 22.875 19.199999999999992 L 34.875 19.199999999999992 " stroke="#000000" stroke-width="0.35 px" style="stroke-width:0.35;stroke-miterlimit:4;stroke-dasharray:none;stroke-linecap:square;fill:none;fill-opacity:1;fill-rule: evenodd"/>
<path id="Sketch_w0044"  d="M 22.875 -1.910019923181761e-15 L 34.875 -1.910019923181761e-15 " stroke="#000000" stroke-width="0.35 px" style="stroke-width:0.35;stroke-miterlimit:4;stroke-dasharray:none;stroke-linecap:square;fill:none;fill-opacity:1;fill-rule: evenodd"/>
<path id="Sketch_w0045"  d="M 25.83304676205282 19.199999999999992 L 28.875 25.699999999999985 L 31.91695323794718 19.199999999999957 L 25.83304676205282 19.199999999999992 " stroke="#000000" stroke-width="0.35 px" style="stroke-width:0.35;stroke-miterlimit:4;stroke-dasharray:none;stroke-linecap:square;fill:none;fill-opacity:1;fill-rule: evenodd"/>
<path id="Sketch_w0046"  d="M 25.83304676205282 6.499999999999998 L 28.875 -1.7763568394002505e-15 L 31.91695323794718 6.499999999999998 L 25.83304676205282 6.499999999999998 M 25.83304676205282 6.499999999999998 L 31.91695323794718 6.499999999999998 L 25.83304676205282 6.499999999999998 " stroke="#000000" stroke-width="0.35 px" style="stroke-width:0.35;stroke-miterlimit:4;stroke-dasharray:none;stroke-linecap:square;fill:none;fill-opacity:1;fill-rule: evenodd"/>
<path id="Sketch_w0047"  d="M 24.693565454723434 -1.0033807679286275 L 28.43277923854973 -1.0033807679286275 L 25.922213112742465 -4.211079153496362 L 28.43277923854973 -4.211079153496362 L 28.43277923854973 -5.052099599518497 L 24.693565454723434 -5.052099599518497 L 27.2041315805307 -1.8444012139507633 L 24.693565454723434 -1.8444012139507633 L 24.693565454723434 -1.0033807679286275 " stroke="#000000" stroke-width="0.35 px" style="stroke-width:0.35;stroke-miterlimit:4;stroke-dasharray:none;stroke-linecap:square;fill:none;fill-opacity:1;fill-rule: evenodd"/>
<circle cx="31.53956" cy="-3.077658" r="2.0704468471721267" stroke="#000000" stroke-width="0.35 px" style="stroke-width:0.35;stroke-miterlimit:4;stroke-dasharray:none;stroke-linecap:square;fill:none"/>
<circle cx="31.53956" cy="-3.077658" r="1.5127939931537273" stroke="#000000" stroke-width="0.35 px" style="stroke-width:0.35;stroke-miterlimit:4;stroke-dasharray:none;stroke-linecap:square;fill:none"/>
<path id="Sketch_w0050"  d="M 8.22688967043466 -37.62111299999995 L 11.023110329565338 -37.62111299999995 " stroke="#000000" stroke-width="0.35 px" style="stroke-width:0.35;stroke-miterlimit:4;stroke-dasharray:none;stroke-linecap:square;fill:none;fill-opacity:1;fill-rule: evenodd"/>
<path id="Sketch_w0051"  d="M 11.95322 -44.206879 L 14.531867 -44.206879 " stroke="#000000" stroke-width="0.35 px" style="stroke-width:0.35;stroke-miterlimit:4;stroke-dasharray:none;stroke-linecap:square;fill:none;fill-opacity:1;fill-rule: evenodd"/>
<path id="Sketch_w0052"  d="M 28.281700110803513 18.586328 L 28.281700110803513 15.609888039913209 L 28.875 13.620625960125013 L 29.468299889196487 15.609888039913209 L 29.468299889196487 18.586328 L 28.281700110803513 18.586328 " stroke="#000000" stroke-width="0.35 px" style="stroke-width:0.35;stroke-miterlimit:4;stroke-dasharray:none;stroke-linecap:square;fill:none;fill-opacity:1;fill-rule: evenodd"/>
<path id="Sketch_w0053"  d="M 31.146074000009367 13.862041545969316 A 2.17686 0.525218 0 1 1 31.1461 14.8444" stroke="#000000" stroke-width="0.35 px" style="stroke-width:0.35;stroke-miterlimit:4;stroke-dasharray:none;stroke-linecap:square;fill:none;fill-opacity:1;fill-rule: evenodd"/>
<path id="Sketch_w0054"  d="M 26.603925999990633 14.848408556876674 A 2.36042 0.525218 180 1 1 26.6039 13.8556" stroke="#000000" stroke-width="0.35 px" style="stroke-width:0.35;stroke-miterlimit:4;stroke-dasharray:none;stroke-linecap:square;fill:none;fill-opacity:1;fill-rule: evenodd"/>
<path id="Sketch_w0055"  d="M 3.6249999999999996 -19.200000000000003 L 15.624999999999998 -19.200000000000003 " stroke="#000000" stroke-width="0.35 px" style="stroke-width:0.35;stroke-miterlimit:4;stroke-dasharray:none;stroke-linecap:square;fill:none;fill-opacity:1;fill-rule: evenodd"/>
<path id="Sketch_w0056"  d="M 6.624999999999999 -15.950000000000005 L 9.624999999999998 -12.700000000000001 L 12.624999999999998 -19.200000000000003 L 6.624999999999999 -15.950000000000005 " stroke="#000000" stroke-width="0.35 px" style="stroke-width:0.35;stroke-miterlimit:4;stroke-dasharray:none;stroke-linecap:square;fill:none;fill-opacity:1;fill-rule: evenodd"/>
<path id="Sketch_w0057"  d="M 4.884075997133884 -21.508235674301464 L 4.884075997133884 -20.53493854659815 L 6.7327444580199565 -20.53493854659815 " stroke="#000000" stroke-width="0.35 px" style="stroke-width:0.35;stroke-miterlimit:4;stroke-dasharray:none;stroke-linecap:square;fill:none;fill-opacity:1;fill-rule: evenodd"/>
<path id="Sketch_w0058"  d="M 6.7327444580199565 -24.365061453401857 L 4.884075997133884 -24.365061453401857 L 4.884075997133884 -23.391764325698542 " stroke="#000000" stroke-width="0.35 px" style="stroke-width:0.35;stroke-miterlimit:4;stroke-dasharray:none;stroke-linecap:square;fill:none;fill-opacity:1;fill-rule: evenodd"/>
<path id="Sketch_w0059"  d="M 14.365924002866114 -23.391764325698542 L 14.365924002866114 -24.365061453401857 L 12.517255541980042 -24.365061453401857 " stroke="#000000" stroke-width="0.35 px" style="stroke-width:0.35;stroke-miterlimit:4;stroke-dasharray:none;stroke-linecap:square;fill:none;fill-opacity:1;fill-rule: evenodd"/>
<path id="Sketch_w0060"  d="M 12.517255541980042 -20.53493854659815 L 14.365924002866114 -20.53493854659815 L 14.365924002866114 -21.508235674301464 " stroke="#000000" stroke-width="0.35 px" style="stroke-width:0.35;stroke-miterlimit:4;stroke-dasharray:none;stroke-linecap:square;fill:none;fill-opacity:1;fill-rule: evenodd"/>
<path id="Sketch_w0061"  d="M 27.749779000000004 -38.25874807119288 A 2.26556 2.26556 0 1 1 30.0002 -38.2587" stroke="#000000" stroke-width="0.35 px" style="stroke-width:0.35;stroke-miterlimit:4;stroke-dasharray:none;stroke-linecap:square;fill:none;fill-opacity:1;fill-rule: evenodd"/>
<path id="Sketch_w0062"  d="M 27.895117 -35.096699 L 28.875 -38.735149 L 29.922253 -35.096699 " stroke="#000000" stroke-width="0.35 px" style="stroke-width:0.35;stroke-miterlimit:4;stroke-dasharray:none;stroke-linecap:square;fill:none;fill-opacity:1;fill-rule: evenodd"/>
<title>b'Sketch'</title>
</g>
</svg>