<?xml version="1.0"?>
<!DOCTYPE svg PUBLIC "-//W3C//DTD SVG 1.1//EN" "http://www.w3.org/Graphics/SVG/1.1/DTD/svg11.dtd">
<svg width="78.54mm" height="97.54mm" viewBox="0 0 78.54 97.54" xmlns="http://www.w3.org/2000/svg" version="1.1">
<g id="Sketch" transform="translate(39.270000,48.770000) scale(1,-1)">
<path id="Sketch_w0000"  d="M -38.5 48.0 L 38.5 48.0 L 38.5 -48.0 L -38.5 -48.0 L -38.5 48.0 " stroke="#000000" stroke-width="0.35 px" style="stroke-width:0.35;stroke-miterlimit:4;stroke-dasharray:none;stroke-linecap:square;fill:none;fill-opacity:1;fill-rule: evenodd"/>
<path id="Sketch_w0001"  d="M -34.875 44.9 L -22.875 44.9 L -22.875 31.9 L -34.875 31.9 L -34.875 44.9 " stroke="#000000" stroke-width="0.35 px" style="stroke-width:0.35;stroke-miterlimit:4;stroke-dasharray:none;stroke-linecap:square;fill:none;fill-opacity:1;fill-rule: evenodd"/>
<path id="Sketch_w0002"  d="M -15.624999999999996 44.9 L -3.6249999999999964 44.9 L -3.6249999999999964 31.9 L -15.624999999999996 31.9 L -15.624999999999996 44.9 " stroke="#000000" stroke-width="0.35 px" style="stroke-width:0.35;stroke-miterlimit:4;stroke-dasharray:none;stroke-linecap:square;fill:none;fill-opacity:1;fill-rule: evenodd"/>
<path id="Sketch_w0003"  d="M 3.6250000000000018 44.9 L 15.625000000000002 44.9 L 15.625000000000002 31.9 L 3.6250000000000018 31.9 L 3.6250000000000018 44.9 " stroke="#000000" stroke-width="0.35 px" style="stroke-width:0.35;stroke-miterlimit:4;stroke-dasharray:none;stroke-linecap:square;fill:none;fill-opacity:1;fill-rule: evenodd"/>
<path id="Sketch_w0004"  d="M 22.875 44.9 L 34.875 44.9 L 34.875 31.9 L 22.875 31.9 L 22.875 44.9 " stroke="#000000" stroke-width="0.35 px" style="stroke-width:0.35;stroke-miterlimit:4;stroke-dasharray:none;stroke-linecap:square;fill:none;fill-opacity:1;fill-rule: evenodd"/>
<path id="Sketch_w0005"  d="M -34.875 25.7 L -22.875 25.7 L -22.875 12.7 L -34.875 12.7 L -34.875 25.7 M -34.875 25.7 L -28.875 12.699999999999998 L -22.874999999999996 19.2 L -34.875 25.7 " stroke="#000000" stroke-width="0.35 px" style="stroke-width:0.35;stroke-miterlimit:4;stroke-dasharray:none;stroke-linecap:square;fill:none;fill-opacity:1;fill-rule: evenodd"/>
<path id="Sketch_w0006"  d="M -15.624999999999996 12.7 L -15.624999999999996 25.7 L -3.6249999999999964 25.7 L -3.6249999999999964 12.7 L -9.624999999999996 25.699999999999996 L -15.624999999999996 12.7 L -3.6249999999999964 12.7 " stroke="#000000" stroke-width="0.35 px" style="stroke-width:0.35;stroke-miterlimit:4;stroke-dasharray:none;stroke-linecap:square;fill:none;fill-opacity:1;fill-rule: evenodd"/>
<path id="Sketch_w0007"  d="M 3.6250000000000018 25.7 L 15.625000000000002 25.7 L 9.625000000000002 12.7 L 3.6250000000000013 19.2 L 15.625000000000002 25.7 L 15.625000000000002 12.7 L 3.6250000000000018 12.7 L 3.6250000000000018 25.7 " stroke="#000000" stroke-width="0.35 px" style="stroke-width:0.35;stroke-miterlimit:4;stroke-dasharray:none;stroke-linecap:square;fill:none;fill-opacity:1;fill-rule: evenodd"/>
<path id="Sketch_w0008"  d="M 22.875 12.7 L 22.875 25.7 L 34.875 25.7 L 34.875 12.7 L 22.875 12.7 L 34.875 12.7 " stroke="#000000" stroke-width="0.35 px" style="stroke-width:0.35;stroke-miterlimit:4;stroke-dasharray:none;stroke-linecap:square;fill:none;fill-opacity:1;fill-rule: evenodd"/>
<path id="Sketch_w0009"  d="M -34.875 6.5 L -22.875 6.5 L -22.875 -6.5 L -34.875 -6.5 L -34.875 6.5 M -22.875 -6.500000000000001 L -34.875 4.134288978088796e-16 L -22.875 6.5 " stroke="#000000" stroke-width="0.35 px" style="stroke-width:0.35;stroke-miterlimit:4;stroke-dasharray:none;stroke-linecap:square;fill:none;fill-opacity:1;fill-rule: evenodd"/>
<path id="Sketch_w0010"  d="M -15.624999999999996 6.5 L -3.6249999999999964 6.5 L -3.6249999999999964 -6.5 L -15.624999999999996 -6.5 L -15.624999999999996 6.5 " stroke="#000000" stroke-width="0.35 px" style="stroke-width:0.35;stroke-miterlimit:4;stroke-dasharray:none;stroke-linecap:square;fill:none;fill-opacity:1;fill-rule: evenodd"/>
<path id="Sketch_w0011"  d="M 3.6250000000000018 6.5 L 15.625000000000002 6.5 L 15.625000000000002 -6.5 L 3.6250000000000018 -6.5 L 3.6250000000000018 6.5 M 3.6250000000000018 6.5 L 15.625 2.0671445102862827e-16 L 3.6250000000000018 -6.5 " stroke="#000000" stroke-width="0.35 px" style="stroke-width:0.35;stroke-miterlimit:4;stroke-dasharray:none;stroke-linecap:square;fill:none;fill-opacity:1;fill-rule: evenodd"/>
<path id="Sketch_w0012"  d="M 22.875 6.5 L 34.875 6.5 L 34.875 -6.5 L 22.875 -6.5 L 22.875 6.5 " stroke="#000000" stroke-width="0.35 px" style="stroke-width:0.35;stroke-miterlimit:4;stroke-dasharray:none;stroke-linecap:square;fill:none;fill-opacity:1;fill-rule: evenodd"/>
<path id="Sketch_w0013"  d="M -34.875 -12.7 L -22.875 -12.7 L -22.875 -25.7 L -34.875 -25.7 L -28.875 -12.699999999999996 L -22.874999999999996 -19.2 L -34.875 -25.7 L -34.875 -12.7 " stroke="#000000" stroke-width="0.35 px" style="stroke-width:0.35;stroke-miterlimit:4;stroke-dasharray:none;stroke-linecap:square;fill:none;fill-opacity:1;fill-rule: evenodd"/>
<path id="Sketch_w0014"  d="M -15.624999999999996 -12.7 L -3.6249999999999964 -12.7 L -3.6249999999999964 -25.7 L -15.624999999999996 -25.7 L -15.624999999999996 -12.7 M -15.624999999999996 -12.7 L -9.624999999999996 -25.7 L -3.6249999999999964 -12.7 " stroke="#000000" stroke-width="0.35 px" style="stroke-width:0.35;stroke-miterlimit:4;stroke-dasharray:none;stroke-linecap:square;fill:none;fill-opacity:1;fill-rule: evenodd"/>
<path id="Sketch_w0015"  d="M 3.6250000000000018 -12.7 L 15.625000000000002 -12.7 L 15.625000000000002 -25.7 L 3.6250000000000018 -25.7 L 3.6250000000000018 -12.7 " stroke="#000000" stroke-width="0.35 px" style="stroke-width:0.35;stroke-miterlimit:4;stroke-dasharray:none;stroke-linecap:square;fill:none;fill-opacity:1;fill-rule: evenodd"/>
<path id="Sketch_w0016"  d="M -34.875 -31.9 L -3.6249999999999964 -31.9 L -3.6249999999999964 -44.9 L -34.875 -44.9 L -34.875 -31.9 " stroke="#000000" stroke-width="0.35 px" style="stroke-width:0.35;stroke-miterlimit:4;stroke-dasharray:none;stroke-linecap:square;fill:none;fill-opacity:1;fill-rule: evenodd"/>
<path id="Sketch_w0017"  d="M 3.6250000000000018 -31.9 L 15.625000000000002 -31.9 L 15.625000000000002 -44.9 L 3.6250000000000018 -44.9 L 3.6250000000000018 -31.9 " stroke="#000000" stroke-width="0.35 px" style="stroke-width:0.35;stroke-miterlimit:4;stroke-dasharray:none;stroke-linecap:square;fill:none;fill-opacity:1;fill-rule: evenodd"/>
<path id="Sketch_w0018"  d="M 22.875 -12.699999999999998 L 34.875 -12.7 L 34.875 -44.900000000000006 L 22.875 -44.900000000000006 L 22.875 -12.699999999999998 M 22.875 -12.699999999999998 L 34.875 -44.900000000000006 M 34.875 -12.7 L 22.875 -44.900000000000006 " stroke="#000000" stroke-width="0.35 px" style="stroke-width:0.35;stroke-miterlimit:4;stroke-dasharray:none;stroke-linecap:square;fill:none;fill-opacity:1;fill-rule: evenodd"/>
<path id="Sketch_w0019"  d="M 3.6250000000000013 -38.4 L 15.625 -38.4 " stroke="#000000" stroke-width="0.35 px" style="stroke-width:0.35;stroke-miterlimit:4;stroke-dasharray:none;stroke-linecap:square;fill:none;fill-opacity:1;fill-rule: evenodd"/>
<circle cx="-28.875" cy="38.400000000000006" r="4.4" stroke="#000000" stroke-width="0.35 px" style="stroke-width:0.35;stroke-miterlimit:4;stroke-dasharray:none;stroke-linecap:square;fill:none"/>
<path id="Sketch_w0021"  d="M -15.624999999999996 4.134288978088796e-16 L -3.6249999999999964 4.134288978088796e-16 " stroke="#000000" stroke-width="0.35 px" style="stroke-width:0.35;stroke-miterlimit:4;stroke-dasharray:none;stroke-linecap:square;fill:none;fill-opacity:1;fill-rule: evenodd"/>
<path id="Sketch_w0022"  d="M -15.624999999999988 38.4 L -3.6249999999999964 38.4 " stroke="#000000" stroke-width="0.35 px" style="stroke-width:0.35;stroke-miterlimit:4;stroke-dasharray:none;stroke-linecap:square;fill:none;fill-opacity:1;fill-rule: evenodd"/>
<path id="Sketch_w0023"  d="M 3.6250000000000013 38.4 L 15.625 38.4 " stroke="#000000" stroke-width="0.35 px" style="stroke-width:0.35;stroke-miterlimit:4;stroke-dasharray:none;stroke-linecap:square;fill:none;fill-opacity:1;fill-rule: evenodd"/>
<path id="Sketch_w0024"  d="M 22.87499999999999 38.4 L 34.875000000000014 38.4 " stroke="#000000" stroke-width="0.35 px" style="stroke-width:0.35;stroke-miterlimit:4;stroke-dasharray:none;stroke-linecap:square;fill:none;fill-opacity:1;fill-rule: evenodd"/>
<circle cx="-9.624999999999996" cy="4.1342889780887977e-16" r="3.9" stroke="#000000" stroke-width="0.35 px" style="stroke-width:0.35;stroke-miterlimit:4;stroke-dasharray:none;stroke-linecap:square;fill:none"/>
<path id="Sketch_w0026"  d="M -9.624999999999996 6.500000000000001 L -9.624999999999996 -6.499999999999999 " stroke="#000000" stroke-width="0.35 px" style="stroke-width:0.35;stroke-miterlimit:4;stroke-dasharray:none;stroke-linecap:square;fill:none;fill-opacity:1;fill-rule: evenodd"/>
<path id="Sketch_w0027"  d="M -17.381205 -38.18175500017694 L -18.095066 -38.18175500017699 L -17.190135500295327 -38.103439358037676 L -17.190135500295327 -42.89518890821057 L -30.875025729596313 -42.89518890821057 L -30.875025729596313 -38.18175500017695 L -19.471384488852166 -38.18175500017695 L -19.471384488852152 -33.69477766894312 L -7.624974270403683 -33.69477766894312 L -7.624974270403683 -37.406081999987705 L -8.994943203307775 -37.406081999987705 L -8.994943203307775 -35.064746601847204 L -18.10141555594809 -35.064746601847204 L -18.10141555594809 -38.18175500017694 L -17.381205 -38.18175500017694 " stroke="#000000" stroke-width="0.35 px" style="stroke-width:0.35;stroke-miterlimit:4;stroke-dasharray:none;stroke-linecap:square;fill:none;fill-opacity:1;fill-rule: evenodd"/>
<path id="Sketch_w0028"  d="M -24.423222652206125 -40.82623700000623 L -24.423222652206125 -42.15256500005745 L -23.641938577685504 -42.15256500005745 L -23.641938577685504 -40.82623700000623 A 1.04153 1.04153 0 1 1 -24.4232 -40.8262" stroke="#000000" stroke-width="0.35 px" style="stroke-width:0.35;stroke-miterlimit:4;stroke-dasharray:none;stroke-linecap:square;fill:none;fill-opacity:1;fill-rule: evenodd"/>
<circle cx="-9.624999999999998" cy="35.15" r="2.3243186020865183" stroke="#000000" stroke-width="0.35 px" style="stroke-width:0.35;stroke-miterlimit:4;stroke-dasharray:none;stroke-linecap:square;fill:none"/>
<circle cx="-12.624999999999993" cy="41.650000000000006" r="1.8840242986912894" stroke="#000000" stroke-width="0.35 px" style="stroke-width:0.35;stroke-miterlimit:4;stroke-dasharray:none;stroke-linecap:square;fill:none"/>
<path id="Sketch_w0031"  d="M 26.073019 37.47431860208652 L 26.073019 32.825681397913456 L 31.411076 35.14999999999998 L 26.073019 37.47431860208652 " stroke="#000000" stroke-width="0.35 px" style="stroke-width:0.35;stroke-miterlimit:4;stroke-dasharray:none;stroke-linecap:square;fill:none;fill-opacity:1;fill-rule: evenodd"/>
<circle cx="31.875" cy="41.65" r="1.8840242986912894" stroke="#000000" stroke-width="0.35 px" style="stroke-width:0.35;stroke-miterlimit:4;stroke-dasharray:none;stroke-linecap:square;fill:none"/>
<path id="Sketch_w0033"  d="M 8.990932162330493 43.53402429869129 L 10.25906783766953 43.53402429869129 L 10.25906783766953 39.76597570130871 L 8.990932162330493 39.76597570130871 L 8.990932162330493 43.53402429869129 " stroke="#000000" stroke-width="0.35 px" style="stroke-width:0.35;stroke-miterlimit:4;stroke-dasharray:none;stroke-linecap:square;fill:none;fill-opacity:1;fill-rule: evenodd"/>
<path id="Sketch_w0034"  d="M -7.259067837669512 43.5340242986913 L -5.990932162330475 43.5340242986913 L -5.990932162330475 39.76597570130872 L -7.259067837669512 39.76597570130872 L -7.259067837669512 43.5340242986913 " stroke="#000000" stroke-width="0.35 px" style="stroke-width:0.35;stroke-miterlimit:4;stroke-dasharray:none;stroke-linecap:square;fill:none;fill-opacity:1;fill-rule: evenodd"/>
<path id="Sketch_w0035"  d="M 25.24093216233049 43.53402429869129 L 26.50906783766953 43.53402429869129 L 26.50906783766953 39.76597570130871 L 25.24093216233049 39.76597570130871 L 25.24093216233049 43.53402429869129 " stroke="#000000" stroke-width="0.35 px" style="stroke-width:0.35;stroke-miterlimit:4;stroke-dasharray:none;stroke-linecap:square;fill:none;fill-opacity:1;fill-rule: evenodd"/>
<circle cx="-9.000021769489111" cy="41.650000000000006" r="0.498319" stroke="#000000" stroke-width="0.35 px" style="stroke-width:0.35;stroke-miterlimit:4;stroke-dasharray:none;stroke-linecap:square;fill:none"/>
<path id="Sketch_w0037"  d="M 10.25906783766953 37.47431860208652 L 11.22261600000013 37.47431860208652 L 11.22261600000013 32.82568139791348 L 10.25906783766953 32.82568139791348 L 10.25906783766953 37.47431860208652 " stroke="#000000" stroke-width="0.35 px" style="stroke-width:0.35;stroke-miterlimit:4;stroke-dasharray:none;stroke-linecap:square;fill:none;fill-opacity:1;fill-rule: evenodd"/>
<path id="Sketch_w0038"  d="M 8.990932162330493 37.47431860208652 L 8.027383999999891 37.47431860208652 L 8.027383999999891 32.82568139791348 L 8.990932162330493 32.82568139791348 L 8.990932162330493 37.47431860208652 " stroke="#000000" stroke-width="0.35 px" style="stroke-width:0.35;stroke-miterlimit:4;stroke-dasharray:none;stroke-linecap:square;fill:none;fill-opacity:1;fill-rule: evenodd"/>
<path id="Sketch_w0039"  d="M 9.018989329664937 -33.024151 L 9.018989329664937 -35.445511 L 9.625000000000002 -37.09275400001252 L 10.231010670335065 -35.445511 L 10.231010670335065 -33.024151 L 9.018989329664937 -33.024151 " stroke="#000000" stroke-width="0.35 px" style="stroke-width:0.35;stroke-miterlimit:4;stroke-dasharray:none;stroke-linecap:square;fill:none;fill-opacity:1;fill-rule: evenodd"/>
<path id="Sketch_w0040"  d="M 12.684607 -39.836807 L 12.684607 -42.40269500002274 L 13.2425435 -43.69426 L 13.800480000000002 -42.40269500002274 L 13.800480000000002 -39.836807 L 12.684607 -39.836807 " stroke="#000000" stroke-width="0.35 px" style="stroke-width:0.35;stroke-miterlimit:4;stroke-dasharray:none;stroke-linecap:square;fill:none;fill-opacity:1;fill-rule: evenodd"/>
<path id="Sketch_w0041"  d="M 7.592192000006595 -42.985018699857186 L 7.592192000006595 -43.95927558691899 L 6.9155348875278 -43.95927558691899 L 6.9155348875278 -42.985018699857235 L 5.941278000466048 -42.98502969869903 L 5.941278000466048 -42.380562112371706 L 6.9155348875278 -42.380562112371706 L 6.9155348875278 -41.4232224160493 L 5.941278000466048 -41.4232224160493 L 5.941278000466048 -40.818754829721975 L 6.9155348875278 -40.818754829721975 L 6.9155348875278 -39.844497942660226 L 7.520002473855123 -39.844497942660226 L 7.520002473855123 -40.818754829721975 L 8.754680807666372 -40.818754829721975 L 8.754680807666372 -39.844497942660226 L 9.359148393993696 -39.844497942660226 L 9.359148393993696 -40.818754829721975 L 10.333405281055448 -40.818754829721975 L 10.333405281055448 -41.45421517797826 L 9.359148393993696 -41.45421517797826 L 9.359148393993696 -42.380562112371706 L 10.333405281055448 -42.380562112371706 L 10.333405281055448 -42.985018699857235 L 9.359148393993694 -42.985018699857235 L 9.359148393993694 -43.95927558691899 L 8.82160767845096 -43.95927558691899 L 8.82160767845096 -43.0454698809436 L 7.520002473855097 -43.0454698809436 " stroke="#000000" stroke-width="0.35 px" style="stroke-width:0.35;stroke-miterlimit:4;stroke-dasharray:none;stroke-linecap:square;fill:none;fill-opacity:1;fill-rule: evenodd"/>
<path id="Sketch_w0042"  d="M 7.520002473855097 -42.380562112371706 L 8.82160767845096 -42.380562112371706 L 8.82160767845096 -41.45421517797826 L 7.592192000006595 -41.45421517797826 L 7.592192000006595 -42.38056211237171 " stroke="#000000" stroke-width="0.35 px" style="stroke-width:0.35;stroke-miterlimit:4;stroke-dasharray:none;stroke-linecap:square;fill:none;fill-opacity:1;fill-rule: evenodd"/>
<path id="Sketch_w0043"  d="M 22.874999999999996 19.2 L 34.87500000000001 19.2 " stroke="#000000" stroke-width="0.35 px" style="stroke-width:0.35;stroke-miterlimit:4;stroke-dasharray:none;stroke-linecap:square;fill:none;fill-opacity:1;fill-rule: evenodd"/>
<path id="Sketch_w0044"  d="M 22.875 4.134288978088796e-16 L 34.875 4.134288978088796e-16 " stroke="#000000" stroke-width="0.35 px" style="stroke-width:0.35;stroke-miterlimit:4;stroke-dasharray:none;stroke-linecap:square;fill:none;fill-opacity:1;fill-rule: evenodd"/>
<path id="Sketch_w0045"  d="M 25.83304676207 19.200000000000003 L 28.875 25.70000000000001 L 31.916953237930002 19.200000000000003 L 25.83304676207 19.200000000000003 " stroke="#000000" stroke-width="0.35 px" style="stroke-width:0.35;stroke-miterlimit:4;stroke-dasharray:none;stroke-linecap:square;fill:none;fill-opacity:1;fill-rule: evenodd"/>
<path id="Sketch_w0046"  d="M 25.83304676207 6.499999999999999 L 28.875 0.0 L 31.916953237930002 6.499999999999999 L 25.83304676207 6.499999999999999 M 25.83304676207 6.499999999999999 L 31.916953237930002 6.499999999999999 L 25.83304676207 6.499999999999999 " stroke="#000000" stroke-width="0.35 px" style="stroke-width:0.35;stroke-miterlimit:4;stroke-dasharray:none;stroke-linecap:square;fill:none;fill-opacity:1;fill-rule: evenodd"/>
<path id="Sketch_w0047"  d="M 24.693565454723434 -1.0033807679286275 L 28.43277923854973 -1.0033807679286275 L 25.922213112742465 -4.211079153496362 L 28.43277923854973 -4.211079153496362 L 28.43277923854973 -5.052099599518497 L 24.693565454723434 -5.052099599518497 L 27.2041315805307 -1.8444012139507633 L 24.693565454723434 -1.8444012139507633 L 24.693565454723434 -1.0033807679286275 " stroke="#000000" stroke-width="0.35 px" style="stroke-width:0.35;stroke-miterlimit:4;stroke-dasharray:none;stroke-linecap:square;fill:none;fill-opacity:1;fill-rule: evenodd"/>
<circle cx="31.53956" cy="-3.077658" r="2.0704468471721267" stroke="#000000" stroke-width="0.35 px" style="stroke-width:0.35;stroke-miterlimit:4;stroke-dasharray:none;stroke-linecap:square;fill:none"/>
<circle cx="31.53956" cy="-3.077658" r="1.5127939931537273" stroke="#000000" stroke-width="0.35 px" style="stroke-width:0.35;stroke-miterlimit:4;stroke-dasharray:none;stroke-linecap:square;fill:none"/>
<path id="Sketch_w0050"  d="M 8.226889670434664 -37.62111299999995 L 11.023110329565338 -37.62111299999995 " stroke="#000000" stroke-width="0.35 px" style="stroke-width:0.35;stroke-miterlimit:4;stroke-dasharray:none;stroke-linecap:square;fill:none;fill-opacity:1;fill-rule: evenodd"/>
<path id="Sketch_w0051"  d="M 11.95322 -44.206879 L 14.531867 -44.206879 " stroke="#000000" stroke-width="0.35 px" style="stroke-width:0.35;stroke-miterlimit:4;stroke-dasharray:none;stroke-linecap:square;fill:none;fill-opacity:1;fill-rule: evenodd"/>
<path id="Sketch_w0052"  d="M 28.281694536348958 18.586328 L 28.281694536348958 15.609888039913209 L 28.875 13.620625960125013 L 29.468305463651046 15.609888039913209 L 29.468305463651046 18.586328 L 28.281694536348958 18.586328 " stroke="#000000" stroke-width="0.35 px" style="stroke-width:0.35;stroke-miterlimit:4;stroke-dasharray:none;stroke-linecap:square;fill:none;fill-opacity:1;fill-rule: evenodd"/>
<path id="Sketch_w0053"  d="M 31.146074000000027 13.862041545968248 A 2.17686 0.525218 0 1 1 31.1461 14.8444" stroke="#000000" stroke-width="0.35 px" style="stroke-width:0.35;stroke-miterlimit:4;stroke-dasharray:none;stroke-linecap:square;fill:none;fill-opacity:1;fill-rule: evenodd"/>
<path id="Sketch_w0054"  d="M 26.603925999999973 14.848408556875865 A 2.36042 0.525218 180 1 1 26.6039 13.8556" stroke="#000000" stroke-width="0.35 px" style="stroke-width:0.35;stroke-miterlimit:4;stroke-dasharray:none;stroke-linecap:square;fill:none;fill-opacity:1;fill-rule: evenodd"/>
<path id="Sketch_w0055"  d="M 3.625000000000002 -19.2 L 15.625000000000002 -19.2 " stroke="#000000" stroke-width="0.35 px" style="stroke-width:0.35;stroke-miterlimit:4;stroke-dasharray:none;stroke-linecap:square;fill:none;fill-opacity:1;fill-rule: evenodd"/>
<path id="Sketch_w0056"  d="M 6.625000000000001 -15.950000000000001 L 9.625000000000002 -12.699999999999998 L 12.625000000000002 -19.200000000000003 L 6.625000000000001 -15.950000000000001 " stroke="#000000" stroke-width="0.35 px" style="stroke-width:0.35;stroke-miterlimit:4;stroke-dasharray:none;stroke-linecap:square;fill:none;fill-opacity:1;fill-rule: evenodd"/>
<path id="Sketch_w0057"  d="M 4.884075997120631 -21.50823567430146 L 4.884075997120631 -20.53493854659814 L 6.732744458006729 -20.53493854659814 " stroke="#000000" stroke-width="0.35 px" style="stroke-width:0.35;stroke-miterlimit:4;stroke-dasharray:none;stroke-linecap:square;fill:none;fill-opacity:1;fill-rule: evenodd"/>
<path id="Sketch_w0058"  d="M 6.732744458006729 -24.365061453401847 L 4.884075997120631 -24.365061453401847 L 4.884075997120631 -23.391764325698528 " stroke="#000000" stroke-width="0.35 px" style="stroke-width:0.35;stroke-miterlimit:4;stroke-dasharray:none;stroke-linecap:square;fill:none;fill-opacity:1;fill-rule: evenodd"/>
<path id="Sketch_w0059"  d="M 14.36592400287937 -23.391764325698528 L 14.36592400287937 -24.365061453401847 L 12.517255541993272 -24.365061453401847 " stroke="#000000" stroke-width="0.35 px" style="stroke-width:0.35;stroke-miterlimit:4;stroke-dasharray:none;stroke-linecap:square;fill:none;fill-opacity:1;fill-rule: evenodd"/>
<path id="Sketch_w0060"  d="M 12.517255541993272 -20.53493854659814 L 14.36592400287937 -20.53493854659814 L 14.36592400287937 -21.50823567430146 " stroke="#000000" stroke-width="0.35 px" style="stroke-width:0.35;stroke-miterlimit:4;stroke-dasharray:none;stroke-linecap:square;fill:none;fill-opacity:1;fill-rule: evenodd"/>
<title>b'Sketch'</title>
</g>
</svg>